<svg xmlns="http://www.w3.org/2000/svg" xmlns:xlink="http://www.w3.org/1999/xlink" width="500" zoomAndPan="magnify" viewBox="0 0 375 374.999991" height="500" preserveAspectRatio="xMidYMid meet" version="1.0"><defs><clipPath id="cc3637c844"><path d="M 100 190 L 178 190 L 178 245 L 100 245 Z M 100 190 " clip-rule="nonzero"/></clipPath><clipPath id="9d93d33a4b"><path d="M 99.519531 239.042969 L 175.28125 189.085938 L 179.410156 195.347656 L 103.648438 245.304688 Z M 99.519531 239.042969 " clip-rule="nonzero"/></clipPath><clipPath id="ab88282ea2"><path d="M 101.171875 241.550781 L 101.933594 242.707031 C 102.847656 244.089844 104.707031 244.472656 106.089844 243.558594 L 176.574219 197.082031 C 177.957031 196.167969 178.339844 194.308594 177.425781 192.925781 L 176.664062 191.765625 C 175.75 190.382812 173.890625 190 172.507812 190.914062 L 102.023438 237.394531 C 100.640625 238.304688 100.257812 240.164062 101.171875 241.550781 Z M 101.171875 241.550781 " clip-rule="nonzero"/></clipPath><clipPath id="40abc36cd5"><path d="M 99.519531 239.042969 L 175.28125 189.085938 L 179.410156 195.347656 L 103.648438 245.304688 Z M 99.519531 239.042969 " clip-rule="nonzero"/></clipPath><clipPath id="b918b88524"><path d="M 95.433594 241.738281 L 174.949219 189.304688 L 179.078125 195.5625 L 99.5625 248 Z M 95.433594 241.738281 " clip-rule="nonzero"/></clipPath><clipPath id="ff656f04bb"><path d="M 130 185 L 177 185 L 177 198 L 130 198 Z M 130 185 " clip-rule="nonzero"/></clipPath><clipPath id="2654091a22"><path d="M 131.367188 185.128906 L 176.769531 190.761719 L 175.847656 198.207031 L 130.445312 192.574219 Z M 131.367188 185.128906 " clip-rule="nonzero"/></clipPath><clipPath id="45d1cd555e"><path d="M 131 188.105469 L 130.828125 189.484375 C 130.625 191.128906 131.792969 192.625 133.4375 192.832031 L 172.8125 197.714844 C 174.457031 197.921875 175.957031 196.753906 176.160156 195.109375 L 176.332031 193.730469 C 176.535156 192.085938 175.367188 190.589844 173.722656 190.386719 L 134.347656 185.5 C 132.703125 185.296875 131.203125 186.464844 131 188.105469 Z M 131 188.105469 " clip-rule="nonzero"/></clipPath><clipPath id="586d4ed3aa"><path d="M 131.367188 185.128906 L 176.769531 190.761719 L 175.847656 198.207031 L 130.445312 192.574219 Z M 131.367188 185.128906 " clip-rule="nonzero"/></clipPath><clipPath id="761d317378"><path d="M 82.101562 179.015625 L 176.625 190.746094 L 175.703125 198.1875 L 81.175781 186.460938 Z M 82.101562 179.015625 " clip-rule="nonzero"/></clipPath><clipPath id="897df49c06"><path d="M 201 129 L 263 129 L 263 182 L 201 182 Z M 201 129 " clip-rule="nonzero"/></clipPath><clipPath id="5ed6544a5e"><path d="M 263.964844 133.960938 L 204.539062 183.324219 L 199.75 177.554688 L 259.171875 128.191406 Z M 263.964844 133.960938 " clip-rule="nonzero"/></clipPath><clipPath id="c037ad84e9"><path d="M 262.046875 131.65625 L 261.160156 130.585938 C 260.101562 129.3125 258.210938 129.136719 256.9375 130.195312 L 202.441406 175.460938 C 201.167969 176.519531 200.992188 178.410156 202.050781 179.683594 L 202.9375 180.753906 C 203.996094 182.027344 205.890625 182.203125 207.164062 181.144531 L 261.65625 135.878906 C 262.929688 134.820312 263.105469 132.929688 262.046875 131.65625 Z M 262.046875 131.65625 " clip-rule="nonzero"/></clipPath><clipPath id="b9f7318797"><path d="M 263.964844 133.960938 L 205.117188 182.84375 L 200.324219 177.074219 L 259.171875 128.191406 Z M 263.964844 133.960938 " clip-rule="nonzero"/></clipPath><clipPath id="b5f21fca99"><path d="M 278.058594 122.253906 L 204.789062 183.113281 L 200 177.34375 L 273.269531 116.484375 Z M 278.058594 122.253906 " clip-rule="nonzero"/></clipPath><clipPath id="0f406336d8"><path d="M 200 174 L 246 174 L 246 195 L 200 195 Z M 200 174 " clip-rule="nonzero"/></clipPath><clipPath id="60083697ff"><path d="M 243.558594 195.367188 L 200.128906 180.984375 L 202.488281 173.863281 L 245.917969 188.246094 Z M 243.558594 195.367188 " clip-rule="nonzero"/></clipPath><clipPath id="c4614b5fe1"><path d="M 244.503906 192.519531 L 244.941406 191.203125 C 245.460938 189.628906 244.609375 187.929688 243.035156 187.410156 L 205.367188 174.933594 C 203.796875 174.414062 202.097656 175.265625 201.578125 176.839844 L 201.140625 178.15625 C 200.621094 179.730469 201.472656 181.425781 203.046875 181.949219 L 240.710938 194.421875 C 242.285156 194.945312 243.984375 194.09375 244.503906 192.519531 Z M 244.503906 192.519531 " clip-rule="nonzero"/></clipPath><clipPath id="c8a098358b"><path d="M 243.558594 195.367188 L 200.128906 180.984375 L 202.488281 173.863281 L 245.917969 188.246094 Z M 243.558594 195.367188 " clip-rule="nonzero"/></clipPath><clipPath id="1bcecd758d"><path d="M 290.6875 210.976562 L 200.269531 181.027344 L 202.625 173.910156 L 293.046875 203.855469 Z M 290.6875 210.976562 " clip-rule="nonzero"/></clipPath><clipPath id="6fe3872c94"><path d="M 183 202 L 201 202 L 201 291 L 183 291 Z M 183 202 " clip-rule="nonzero"/></clipPath><clipPath id="76ff937778"><path d="M 193.496094 290.757812 L 182.855469 202.898438 L 190.300781 201.996094 L 200.941406 289.855469 Z M 193.496094 290.757812 " clip-rule="nonzero"/></clipPath><clipPath id="7884243ecd"><path d="M 196.476562 290.394531 L 197.851562 290.226562 C 199.5 290.027344 200.671875 288.535156 200.472656 286.890625 L 190.59375 205.359375 C 190.394531 203.714844 188.898438 202.542969 187.253906 202.742188 L 185.878906 202.910156 C 184.234375 203.109375 183.0625 204.601562 183.261719 206.246094 L 193.136719 287.777344 C 193.335938 289.421875 194.832031 290.59375 196.476562 290.394531 Z M 196.476562 290.394531 " clip-rule="nonzero"/></clipPath><clipPath id="fb41c18dcd"><path d="M 193.496094 290.757812 L 182.855469 202.898438 L 190.300781 201.996094 L 200.941406 289.855469 Z M 193.496094 290.757812 " clip-rule="nonzero"/></clipPath><clipPath id="7edbe6fb00"><path d="M 194.34375 297.742188 L 182.890625 203.183594 L 190.335938 202.285156 L 201.789062 296.84375 Z M 194.34375 297.742188 " clip-rule="nonzero"/></clipPath><clipPath id="6eec10580b"><path d="M 152 201 L 191 201 L 191 234 L 152 234 Z M 152 201 " clip-rule="nonzero"/></clipPath><clipPath id="3c0f03503b"><path d="M 151.578125 229.136719 L 187.199219 200.429688 L 191.90625 206.269531 L 156.285156 234.976562 Z M 151.578125 229.136719 " clip-rule="nonzero"/></clipPath><clipPath id="c2fac7875b"><path d="M 153.460938 231.472656 L 154.332031 232.554688 C 155.371094 233.84375 157.257812 234.046875 158.550781 233.007812 L 189.441406 208.109375 C 190.734375 207.066406 190.9375 205.179688 189.894531 203.890625 L 189.023438 202.808594 C 187.984375 201.519531 186.097656 201.316406 184.808594 202.355469 L 153.914062 227.253906 C 152.625 228.292969 152.421875 230.183594 153.460938 231.472656 Z M 153.460938 231.472656 " clip-rule="nonzero"/></clipPath><clipPath id="404a8cd278"><path d="M 151.578125 229.136719 L 187.199219 200.429688 L 191.90625 206.269531 L 156.285156 234.976562 Z M 151.578125 229.136719 " clip-rule="nonzero"/></clipPath><clipPath id="cce97b7374"><path d="M 112.921875 260.292969 L 187.085938 200.519531 L 191.792969 206.359375 L 117.628906 266.128906 Z M 112.921875 260.292969 " clip-rule="nonzero"/></clipPath><clipPath id="cf578a80a4"><path d="M 201 193 L 287 193 L 287 233 L 201 233 Z M 201 193 " clip-rule="nonzero"/></clipPath><clipPath id="2e900ca4ba"><path d="M 284.457031 233.867188 L 200.402344 199.65625 L 203.226562 192.710938 L 287.28125 226.921875 Z M 284.457031 233.867188 " clip-rule="nonzero"/></clipPath><clipPath id="f149d2c474"><path d="M 285.585938 231.089844 L 286.109375 229.804688 C 286.734375 228.269531 285.996094 226.519531 284.460938 225.894531 L 206.261719 194.066406 C 204.726562 193.441406 202.976562 194.179688 202.351562 195.714844 L 201.828125 197 C 201.203125 198.53125 201.941406 200.285156 203.476562 200.90625 L 281.675781 232.734375 C 283.210938 233.359375 284.960938 232.625 285.585938 231.089844 Z M 285.585938 231.089844 " clip-rule="nonzero"/></clipPath><clipPath id="49d266962e"><path d="M 284.457031 233.867188 L 200.402344 199.65625 L 203.226562 192.710938 L 287.28125 226.921875 Z M 284.457031 233.867188 " clip-rule="nonzero"/></clipPath><clipPath id="4a3cf4c43a"><path d="M 288.839844 235.652344 L 200.617188 199.746094 L 203.445312 192.796875 L 291.667969 228.707031 Z M 288.839844 235.652344 " clip-rule="nonzero"/></clipPath><clipPath id="fa4a4dfb66"><path d="M 200 193 L 215 193 L 215 240 L 200 240 Z M 200 193 " clip-rule="nonzero"/></clipPath><clipPath id="6e4ea4893f"><path d="M 208.101562 239.714844 L 200.304688 194.636719 L 207.695312 193.359375 L 215.492188 238.4375 Z M 208.101562 239.714844 " clip-rule="nonzero"/></clipPath><clipPath id="f20ac0616e"><path d="M 211.058594 239.207031 L 212.425781 238.96875 C 214.058594 238.6875 215.152344 237.132812 214.871094 235.5 L 208.109375 196.402344 C 207.824219 194.769531 206.273438 193.675781 204.640625 193.957031 L 203.273438 194.195312 C 201.640625 194.476562 200.546875 196.03125 200.828125 197.664062 L 207.589844 236.761719 C 207.875 238.394531 209.425781 239.488281 211.058594 239.207031 Z M 211.058594 239.207031 " clip-rule="nonzero"/></clipPath><clipPath id="ce8ca68e7e"><path d="M 208.101562 239.714844 L 200.304688 194.636719 L 207.695312 193.359375 L 215.492188 238.4375 Z M 208.101562 239.714844 " clip-rule="nonzero"/></clipPath><clipPath id="8ef088dd3f"><path d="M 216.566406 288.636719 L 200.332031 194.78125 L 207.71875 193.5 L 223.953125 287.355469 Z M 216.566406 288.636719 " clip-rule="nonzero"/></clipPath><clipPath id="d27c7218f0"><path d="M 158 85 L 194 85 L 194 172 L 158 172 Z M 158 85 " clip-rule="nonzero"/></clipPath><clipPath id="b162caf023"><path d="M 164.375 84.242188 L 194.609375 169.808594 L 187.539062 172.308594 L 157.304688 86.742188 Z M 164.375 84.242188 " clip-rule="nonzero"/></clipPath><clipPath id="d1e07bdc42"><path d="M 161.546875 85.242188 L 160.238281 85.703125 C 158.675781 86.257812 157.859375 87.96875 158.410156 89.53125 L 186.539062 169.136719 C 187.089844 170.699219 188.804688 171.519531 190.367188 170.96875 L 191.675781 170.503906 C 193.234375 169.953125 194.054688 168.238281 193.503906 166.675781 L 165.375 87.070312 C 164.824219 85.507812 163.109375 84.691406 161.546875 85.242188 Z M 161.546875 85.242188 " clip-rule="nonzero"/></clipPath><clipPath id="ce5dea2459"><path d="M 164.375 84.242188 L 194.609375 169.808594 L 187.539062 172.308594 L 157.304688 86.742188 Z M 164.375 84.242188 " clip-rule="nonzero"/></clipPath><clipPath id="5262e61720"><path d="M 162.796875 79.777344 L 194.53125 169.585938 L 187.460938 172.085938 L 155.726562 82.277344 Z M 162.796875 79.777344 " clip-rule="nonzero"/></clipPath><clipPath id="9a67b50c30"><path d="M 186 134 L 219 134 L 219 172 L 186 172 Z M 186 134 " clip-rule="nonzero"/></clipPath><clipPath id="bc56214df5"><path d="M 219.445312 137.445312 L 190.917969 173.210938 L 185.054688 168.535156 L 213.582031 132.769531 Z M 219.445312 137.445312 " clip-rule="nonzero"/></clipPath><clipPath id="d09a33e555"><path d="M 217.101562 135.578125 L 216.015625 134.710938 C 214.722656 133.679688 212.832031 133.890625 211.800781 135.183594 L 187.054688 166.203125 C 186.023438 167.5 186.234375 169.386719 187.53125 170.421875 L 188.617188 171.285156 C 189.910156 172.320312 191.796875 172.105469 192.832031 170.8125 L 217.574219 139.792969 C 218.609375 138.496094 218.394531 136.609375 217.101562 135.578125 Z M 217.101562 135.578125 " clip-rule="nonzero"/></clipPath><clipPath id="f3ce51a01e"><path d="M 219.445312 137.445312 L 190.917969 173.210938 L 185.054688 168.535156 L 213.582031 132.769531 Z M 219.445312 137.445312 " clip-rule="nonzero"/></clipPath><clipPath id="d013143aaa"><path d="M 250.40625 98.636719 L 191.007812 173.097656 L 185.144531 168.421875 L 244.542969 93.960938 Z M 250.40625 98.636719 " clip-rule="nonzero"/></clipPath><clipPath id="d7d3c903c6"><path d="M 88 160 L 178 160 L 178 181 L 88 181 Z M 88 160 " clip-rule="nonzero"/></clipPath><clipPath id="27618ff7e8"><path d="M 88.867188 159.597656 L 178.578125 173.28125 L 177.449219 180.695312 L 87.734375 167.011719 Z M 88.867188 159.597656 " clip-rule="nonzero"/></clipPath><clipPath id="b521d3d3ec"><path d="M 88.414062 162.5625 L 88.207031 163.933594 C 87.957031 165.574219 89.082031 167.105469 90.71875 167.351562 L 174.183594 180.082031 C 175.820312 180.332031 177.351562 179.207031 177.601562 177.570312 L 177.808594 176.195312 C 178.058594 174.558594 176.933594 173.027344 175.296875 172.777344 L 91.832031 160.050781 C 90.195312 159.800781 88.664062 160.925781 88.414062 162.5625 Z M 88.414062 162.5625 " clip-rule="nonzero"/></clipPath><clipPath id="fa6710a835"><path d="M 88.867188 159.597656 L 178.578125 173.28125 L 177.449219 180.695312 L 87.734375 167.011719 Z M 88.867188 159.597656 " clip-rule="nonzero"/></clipPath><clipPath id="b438ed48cf"><path d="M 84.183594 158.882812 L 178.347656 173.242188 L 177.214844 180.65625 L 83.054688 166.296875 Z M 84.183594 158.882812 " clip-rule="nonzero"/></clipPath><clipPath id="61fa0a8ba1"><path d="M 155 137 L 179 137 L 179 181 L 155 181 Z M 155 137 " clip-rule="nonzero"/></clipPath><clipPath id="1a7fdb3d4a"><path d="M 161.75 136.117188 L 179.839844 178.140625 L 172.949219 181.105469 L 154.863281 139.082031 Z M 161.75 136.117188 " clip-rule="nonzero"/></clipPath><clipPath id="4e931bd534"><path d="M 158.996094 137.304688 L 157.71875 137.851562 C 156.199219 138.507812 155.496094 140.273438 156.152344 141.792969 L 171.839844 178.238281 C 172.492188 179.761719 174.257812 180.464844 175.78125 179.808594 L 177.054688 179.261719 C 178.578125 178.605469 179.28125 176.839844 178.625 175.320312 L 162.9375 138.871094 C 162.28125 137.351562 160.515625 136.648438 158.996094 137.304688 Z M 158.996094 137.304688 " clip-rule="nonzero"/></clipPath><clipPath id="0ec209f9eb"><path d="M 161.75 136.117188 L 179.839844 178.140625 L 172.949219 181.105469 L 154.863281 139.082031 Z M 161.75 136.117188 " clip-rule="nonzero"/></clipPath><clipPath id="f71d334951"><path d="M 142.121094 90.515625 L 179.78125 178.007812 L 172.894531 180.972656 L 135.234375 93.480469 Z M 142.121094 90.515625 " clip-rule="nonzero"/></clipPath></defs><g clip-path="url(#cc3637c844)"><g clip-path="url(#9d93d33a4b)"><g clip-path="url(#ab88282ea2)"><g clip-path="url(#40abc36cd5)"><g clip-path="url(#b918b88524)"><path fill="#a6a6a6" d="M 95.445312 241.761719 L 175.023438 189.285156 L 179.058594 195.40625 L 99.484375 247.882812 Z M 95.445312 241.761719 " fill-opacity="1" fill-rule="nonzero"/></g></g></g></g></g><g clip-path="url(#ff656f04bb)"><g clip-path="url(#2654091a22)"><g clip-path="url(#45d1cd555e)"><g clip-path="url(#586d4ed3aa)"><g clip-path="url(#761d317378)"><path fill="#a6a6a6" d="M 82.097656 179.042969 L 176.691406 190.777344 L 175.789062 198.054688 L 81.195312 186.320312 Z M 82.097656 179.042969 " fill-opacity="1" fill-rule="nonzero"/></g></g></g></g></g><g clip-path="url(#897df49c06)"><g clip-path="url(#5ed6544a5e)"><g clip-path="url(#c037ad84e9)"><g clip-path="url(#b9f7318797)"><g clip-path="url(#b5f21fca99)"><path fill="#a6a6a6" d="M 278.042969 122.234375 L 204.71875 183.140625 L 200.035156 177.5 L 273.359375 116.59375 Z M 278.042969 122.234375 " fill-opacity="1" fill-rule="nonzero"/></g></g></g></g></g><g clip-path="url(#0f406336d8)"><g clip-path="url(#60083697ff)"><g clip-path="url(#c4614b5fe1)"><g clip-path="url(#c8a098358b)"><g clip-path="url(#1bcecd758d)"><path fill="#a6a6a6" d="M 290.695312 210.953125 L 200.210938 180.984375 L 202.515625 174.023438 L 293 203.992188 Z M 290.695312 210.953125 " fill-opacity="1" fill-rule="nonzero"/></g></g></g></g></g><g clip-path="url(#6fe3872c94)"><g clip-path="url(#76ff937778)"><g clip-path="url(#7884243ecd)"><g clip-path="url(#fb41c18dcd)"><g clip-path="url(#7edbe6fb00)"><path fill="#ffffff" d="M 194.371094 297.742188 L 182.90625 203.113281 L 190.183594 202.230469 L 201.648438 296.859375 Z M 194.371094 297.742188 " fill-opacity="1" fill-rule="nonzero"/></g></g></g></g></g><g clip-path="url(#6eec10580b)"><g clip-path="url(#3c0f03503b)"><g clip-path="url(#c2fac7875b)"><g clip-path="url(#404a8cd278)"><g clip-path="url(#cce97b7374)"><path fill="#ffffff" d="M 112.9375 260.3125 L 187.15625 200.496094 L 191.757812 206.203125 L 117.539062 266.019531 Z M 112.9375 260.3125 " fill-opacity="1" fill-rule="nonzero"/></g></g></g></g></g><g clip-path="url(#cf578a80a4)"><g clip-path="url(#2e900ca4ba)"><g clip-path="url(#f149d2c474)"><g clip-path="url(#49d266962e)"><g clip-path="url(#4a3cf4c43a)"><path fill="#ffffff" d="M 288.851562 235.628906 L 200.5625 199.695312 L 203.328125 192.902344 L 291.613281 228.835938 Z M 288.851562 235.628906 " fill-opacity="1" fill-rule="nonzero"/></g></g></g></g></g><g clip-path="url(#fa4a4dfb66)"><g clip-path="url(#6e4ea4893f)"><g clip-path="url(#f20ac0616e)"><g clip-path="url(#ce8ca68e7e)"><g clip-path="url(#8ef088dd3f)"><path fill="#ffffff" d="M 216.589844 288.632812 L 200.34375 194.707031 L 207.566406 193.457031 L 223.816406 287.382812 Z M 216.589844 288.632812 " fill-opacity="1" fill-rule="nonzero"/></g></g></g></g></g><g clip-path="url(#d27c7218f0)"><g clip-path="url(#b162caf023)"><g clip-path="url(#d1e07bdc42)"><g clip-path="url(#ce5dea2459)"><g clip-path="url(#5262e61720)"><path fill="#ffffff" d="M 162.773438 79.785156 L 194.53125 169.660156 L 187.617188 172.105469 L 155.859375 82.230469 Z M 162.773438 79.785156 " fill-opacity="1" fill-rule="nonzero"/></g></g></g></g></g><g clip-path="url(#9a67b50c30)"><g clip-path="url(#bc56214df5)"><g clip-path="url(#d09a33e555)"><g clip-path="url(#f3ce51a01e)"><g clip-path="url(#d013143aaa)"><path fill="#ffffff" d="M 250.386719 98.621094 L 190.945312 173.136719 L 185.210938 168.566406 L 244.652344 94.050781 Z M 250.386719 98.621094 " fill-opacity="1" fill-rule="nonzero"/></g></g></g></g></g><g clip-path="url(#d7d3c903c6)"><g clip-path="url(#27618ff7e8)"><g clip-path="url(#b521d3d3ec)"><g clip-path="url(#fa6710a835)"><g clip-path="url(#b438ed48cf)"><path fill="#ffffff" d="M 84.179688 158.910156 L 178.414062 173.28125 L 177.308594 180.527344 L 83.074219 166.15625 Z M 84.179688 158.910156 " fill-opacity="1" fill-rule="nonzero"/></g></g></g></g></g><g clip-path="url(#61fa0a8ba1)"><g clip-path="url(#1a7fdb3d4a)"><g clip-path="url(#4e931bd534)"><g clip-path="url(#0ec209f9eb)"><g clip-path="url(#f71d334951)"><path fill="#ffffff" d="M 142.097656 90.527344 L 179.785156 178.082031 L 173.050781 180.980469 L 135.363281 93.425781 Z M 142.097656 90.527344 " fill-opacity="1" fill-rule="nonzero"/></g></g></g></g></g></svg>